Coordinates
version=1
nRows=26
nColumns=22
inDegrees=yes

Units are S.I. units (second, meters, Newtons, ...)
If the header above contains a line with 'inDegrees', this indicates whether rotational values are in degrees (yes) or radians (no).

endheader
time	pelvis_tilt	pelvis_list	pelvis_rotation	pelvis_tx	pelvis_ty	pelvis_tz	hip_flexion_r	hip_adduction_r	hip_rotation_r	knee_angle_r	ankle_angle_r	subtalar_angle_r	hip_flexion_l	hip_adduction_l	hip_rotation_l	knee_angle_l	ankle_angle_l	subtalar_angle_l	lumbar_extension	lumbar_bending	lumbar_rotation
      1.34000000	     -3.85683536	     -4.20935219	     -2.48363660	     -1.17220226	      0.95371137	      0.00582986	     11.19104712	      3.81540515	     -2.98064762	    -19.38015032	     11.49665036	     -2.08332546	     13.61030516	     -6.68113860	     -8.25231213	    -26.11739963	     13.90557186	     -4.14122922	     -5.45369001	      2.35471320	      0.29646703
      1.35000000	     -3.88324172	     -4.21344153	     -2.45976179	     -1.17189200	      0.95366464	      0.00543031	     11.16711142	      3.78841784	     -2.99684463	    -19.32831087	     11.49958599	     -2.05967702	     13.63909184	     -6.65997155	     -8.25066075	    -26.14553347	     13.91797370	     -4.15102779	     -5.45120288	      2.34565399	      0.33314884
      1.36000000	     -3.93755447	     -4.23873526	     -2.40079959	     -1.17153785	      0.95357070	      0.00490505	     11.16323092	      3.76903324	     -3.06500679	    -19.26694424	     11.52242328	     -1.79277020	     13.70169729	     -6.64394940	     -8.18953738	    -26.17280257	     13.95027799	     -4.23170323	     -5.40982225	      2.37666101	      0.30106003
      1.37000000	     -3.96629805	     -4.24158135	     -2.37211644	     -1.17115428	      0.95352073	      0.00440614	     11.12947051	      3.73650853	     -3.06438324	    -19.20254078	     11.52977522	     -1.78048391	     13.72144636	     -6.61403888	     -8.18826172	    -26.18833682	     13.98392493	     -4.24421092	     -5.40068902	      2.37171484	      0.32935892
      1.38000000	     -3.99290650	     -4.26150116	     -2.32139051	     -1.17071182	      0.95347192	      0.00381704	     11.07682828	      3.71459887	     -3.08408514	    -19.11822975	     11.55168503	     -1.72448128	     13.73027496	     -6.58747567	     -8.14248903	    -26.18989508	     14.06577235	     -4.28506985	     -5.38845969	      2.39513722	      0.31238095
      1.39000000	     -4.01229194	     -4.28763318	     -2.26133199	     -1.17023243	      0.95343719	      0.00318125	     11.00750163	      3.69271799	     -3.13785415	    -19.02237989	     11.56459820	     -1.65590090	     13.73724138	     -6.56611128	     -8.09540822	    -26.20456380	     14.12057566	     -4.32244049	     -5.38289503	      2.42340485	      0.30843398
      1.40000000	     -4.01954068	     -4.31953390	     -2.19700195	     -1.16975772	      0.95342078	      0.00249438	     10.92343408	      3.67162202	     -3.20681110	    -18.92371149	     11.57332115	     -1.56600178	     13.73699546	     -6.54563130	     -8.03273636	    -26.22949437	     14.17235822	     -4.36108896	     -5.39913359	      2.45845765	      0.30865602
      1.41000000	     -4.04795922	     -4.34444405	     -2.14635010	     -1.16925008	      0.95338405	      0.00180606	     10.85192988	      3.64761033	     -3.25313118	    -18.80950102	     11.58820910	     -1.52329006	     13.74218280	     -6.52218409	     -8.00236345	    -26.23041428	     14.23030728	     -4.38446054	     -5.38780783	      2.48174852	      0.31734440
      1.42000000	     -4.06586865	     -4.38317371	     -2.08115031	     -1.16873144	      0.95335864	      0.00106950	     10.76144111	      3.63222731	     -3.33180536	    -18.68396172	     11.59476814	     -1.46983304	     13.74652120	     -6.50822510	     -7.94701573	    -26.24895671	     14.29443466	     -4.40832963	     -5.39224387	      2.51938654	      0.32257486
      1.43000000	     -4.08886266	     -4.42334717	     -2.01926677	     -1.16820333	      0.95332784	      0.00031149	     10.67296335	      3.61666529	     -3.41297964	    -18.55393746	     11.59669760	     -1.41847558	     13.75537772	     -6.49633612	     -7.89729091	    -26.26751838	     14.35303497	     -4.42660570	     -5.39337476	      2.55511760	      0.33102432
      1.44000000	     -4.11503575	     -4.46749245	     -1.95361420	     -1.16766443	      0.95329123	     -0.00047085	     10.58422324	      3.60417293	     -3.50173571	    -18.41858781	     11.59529551	     -1.36636255	     13.77038827	     -6.48699486	     -7.84295739	    -26.29123247	     14.41361386	     -4.44235625	     -5.39463237	      2.59120262	      0.34244340
      1.45000000	     -4.13749114	     -4.51712895	     -1.87940276	     -1.16713615	      0.95325586	     -0.00129049	     10.49502307	      3.59318426	     -3.60285055	    -18.28810389	     11.58663966	     -1.29963702	     13.79077077	     -6.47994858	     -7.77153972	    -26.32746088	     14.47210734	     -4.45458504	     -5.40940358	      2.63016467	      0.35101643
      1.46000000	     -4.17894428	     -4.55713007	     -1.81539297	     -1.16653467	      0.95319440	     -0.00212441	     10.41933903	      3.57438122	     -3.68332151	    -18.15427734	     11.59017788	     -1.25626506	     13.80965693	     -6.46381557	     -7.72687344	    -26.33515318	     14.53434743	     -4.46810272	     -5.39228756	      2.65695556	      0.36313193
      1.47000000	     -4.21484924	     -4.60082044	     -1.73950357	     -1.16593129	      0.95313217	     -0.00301771	     10.34367056	      3.55337609	     -3.77679754	    -18.03101645	     11.59058229	     -1.20713951	     13.82989134	     -6.44499019	     -7.66247862	    -26.35228706	     14.59889975	     -4.48263074	     -5.38845683	      2.68712105	      0.37215483
      1.48000000	     -4.25067255	     -4.63727817	     -1.66034871	     -1.16529865	      0.95306429	     -0.00396145	     10.27571441	      3.52144523	     -3.86540710	    -17.92535339	     11.59741035	     -1.15424893	     13.84475333	     -6.41392836	     -7.59873635	    -26.36169550	     14.66251436	     -4.49806358	     -5.38706742	      2.70986242	      0.37885408
      1.49000000	     -4.28589043	     -4.66473736	     -1.58023018	     -1.16463246	      0.95298799	     -0.00497152	     10.21704805	      3.47491503	     -3.94875219	    -17.84163092	     11.61351745	     -1.09902345	     13.85166940	     -6.36704532	     -7.53614782	    -26.36111608	     14.72618325	     -4.51571451	     -5.38675827	      2.72394079	      0.38682181
      1.50000000	     -4.31699604	     -4.68165466	     -1.49340564	     -1.16392281	      0.95290814	     -0.00605888	     10.16943912	      3.41068247	     -4.03017351	    -17.79074432	     11.64080614	     -1.03645402	     13.84638755	     -6.30126904	     -7.46828283	    -26.34998712	     14.78974451	     -4.53706225	     -5.39031695	      2.72916473	      0.39036781
      1.51000000	     -4.34446793	     -4.68479574	     -1.40502132	     -1.16316107	      0.95281979	     -0.00721989	     10.13590092	      3.32673481	     -4.10803425	    -17.77899869	     11.68184392	     -0.96750095	     13.82707871	     -6.21252829	     -7.39746505	    -26.32761781	     14.85148370	     -4.56361194	     -5.39604146	      2.72105589	      0.39166309
      1.52000000	     -4.36680128	     -4.67435528	     -1.31183845	     -1.16235304	      0.95272659	     -0.00846949	     10.12167825	      3.22149263	     -4.17884568	    -17.81595697	     11.73791986	     -0.89332532	     13.79266492	     -6.10081118	     -7.32640727	    -26.29271733	     14.90814719	     -4.59641436	     -5.40736178	      2.70254197	      0.38802998
      1.53000000	     -4.38412531	     -4.65984391	     -1.22792957	     -1.16150585	      0.95261847	     -0.00976399	     10.13010787	      3.11207347	     -4.21728271	    -17.90662921	     11.77794333	     -0.85173135	     13.74920347	     -5.98011141	     -7.25075193	    -26.26340825	     14.98485853	     -4.62979923	     -5.42674334	      2.67774505	      0.41488309
      1.54000000	     -4.39318683	     -4.59929619	     -1.11673128	     -1.16057772	      0.95250218	     -0.01119823	     10.16383626	      2.93549492	     -4.30039785	    -18.06776085	     11.89515601	     -0.76721748	     13.67530057	     -5.79277851	     -7.16347502	    -26.19351341	     15.03823601	     -4.68186486	     -5.45063834	      2.60853711	      0.38675512
      1.55000000	     -4.39325135	     -4.52946565	     -1.00794493	     -1.15960878	      0.95237352	     -0.01269711	     10.23931190	      2.74576199	     -4.34744942	    -18.32523783	     12.02033540	     -0.64387045	     13.57748993	     -5.58888700	     -7.07771102	    -26.10622351	     15.07105188	     -4.75557985	     -5.48777799	      2.53337047	      0.34527405
      1.56000000	     -4.38145534	     -4.43616960	     -0.89948777	     -1.15863548	      0.95222247	     -0.01425396	     10.36483930	      2.52623915	     -4.36234997	    -18.69393466	     12.15797563	     -0.49053367	     13.47109557	     -5.35358923	     -6.98155452	    -26.03163641	     15.10387580	     -4.85230621	     -5.54764390	      2.43004432	      0.32020205
      1.57000000	     -4.36393334	     -4.32903871	     -0.79183322	     -1.15761120	      0.95204254	     -0.01585308	     10.54521692	      2.28924827	     -4.35210484	    -19.17494549	     12.28486887	     -0.39646172	     13.33923124	     -5.09914442	     -6.88674327	    -25.93243858	     15.19299017	     -4.93298594	     -5.61531753	      2.31163914	      0.28831518
      1.58000000	     -4.33890621	     -4.18751724	     -0.67723087	     -1.15659028	      0.95183035	     -0.01750442	     10.79574719	      2.01129585	     -4.31093546	    -19.79587876	     12.44164875	     -0.28803424	     13.19758973	     -4.80368386	     -6.79234962	    -25.83013062	     15.25105442	     -5.01806811	     -5.70080510	      2.15476457	      0.23396983
      1.59000000	     -4.30699712	     -4.01805864	     -0.55847676	     -1.15557314	      0.95158252	     -0.01919736	     11.12025286	      1.70037753	     -4.23595021	    -20.56240553	     12.60542210	     -0.16771746	     13.04496718	     -4.47659195	     -6.70131051	    -25.72355386	     15.31064554	     -5.11009810	     -5.80341151	      1.96739342	      0.16167064
